<svg xmlns="http://www.w3.org/2000/svg" width="80" height="80" viewBox="0 0 80 80">
  <g id="Group_20" data-name="Group 20" transform="translate(-53 -255)">
    <rect id="Rectangle_1" data-name="Rectangle 1" width="80" height="80" transform="translate(53 255)" fill="#3dcfd3"/>
    <g id="suitcase" transform="translate(77 279.667)">
      <path id="Path_9" data-name="Path 9" d="M17.456,7.464A1.289,1.289,0,0,1,16.105,6.25V4.429H10.7V6.25A1.289,1.289,0,0,1,9.351,7.464,1.289,1.289,0,0,1,8,6.25V4.429A2.579,2.579,0,0,1,10.7,2h5.4a2.579,2.579,0,0,1,2.7,2.429V6.25A1.289,1.289,0,0,1,17.456,7.464Z" transform="translate(2.596 -0.964)" fill="#1d1d1d"/>
      <path id="Path_10" data-name="Path 10" d="M16.947,16.578a2.774,2.774,0,0,1-.947.158,2.95,2.95,0,0,1-1.027-.185L0,11.62V21.682a3.645,3.645,0,0,0,3.667,3.626H28.333A3.645,3.645,0,0,0,32,21.682V11.62Z" transform="translate(0 3.359)" fill="#1d1d1d"/>
      <path id="Path_11" data-name="Path 11" d="M32,8.581v2.982l-15.68,5.1a1.009,1.009,0,0,1-.64,0L0,11.563V8.581A3.622,3.622,0,0,1,3.667,5H28.333A3.622,3.622,0,0,1,32,8.581Z" transform="translate(0 1.818)" fill="#1d1d1d"/>
    </g>
  </g>
</svg>
