<svg xmlns="http://www.w3.org/2000/svg" width="90" height="76.9" viewBox="0 0 45 39.5">
  <g id="Group_26" data-name="Group 26" transform="translate(-42 -482)">
    <g id="Group_25" data-name="Group 25">
      <g id="Group_24" data-name="Group 24">
        <g id="Group_22" data-name="Group 22">
          <path id="Path_14" data-name="Path 14" d="M42.937,24.976a6.638,6.638,0,0,0-4.051-1.933V2.152a.7.7,0,0,0-.982-.638L25.725,6.926,13.533.153,13.512.143,13.486.13c-.018-.008-.037-.016-.055-.023L13.413.1a.688.688,0,0,0-.158-.033h-.017a.564.564,0,0,0-.063,0h-.021c-.022,0-.043,0-.065.007l-.015,0A.648.648,0,0,0,13,.094l-.014,0a.607.607,0,0,0-.063.023l-.009,0L.414,5.68A.7.7,0,0,0,0,6.318v27.77a.7.7,0,0,0,.982.639L13.16,29.314l12.192,6.773.028.013.037.018c.017.007.035.014.053.019l.036.012c.019.005.039.009.058.013l.035.007c.025,0,.049,0,.074.005h.019a.771.771,0,0,0,.085-.006l.019,0a.619.619,0,0,0,.064-.013l.025-.007c.02-.005.04-.012.059-.02l.023-.009.008,0,6.317-2.808a7.616,7.616,0,0,0,1.06,1.421l4.334,4.616a.7.7,0,0,0,1.018,0l4.334-4.616a7.2,7.2,0,0,0,1.543-2.452,6.714,6.714,0,0,0,.4-2.763,7.1,7.1,0,0,0-2.049-4.537Zm-5.448-1.931a6.64,6.64,0,0,0-4.036,1.931A7.1,7.1,0,0,0,31.4,29.514a6.672,6.672,0,0,0,.321,2.516L26.389,34.4V8.16l11.1-4.933ZM13.893,1.951l11.1,6.166V34.29l-11.1-6.166ZM1.4,6.771,12.5,1.839V28.08L1.4,33.013ZM43.27,31.8a5.809,5.809,0,0,1-1.249,1.975L38.2,37.848,34.37,33.773A5.809,5.809,0,0,1,33.121,31.8a5.321,5.321,0,0,1-.323-2.191,5.7,5.7,0,0,1,1.645-3.645,5.3,5.3,0,0,1,7.5,0,5.7,5.7,0,0,1,1.645,3.645A5.327,5.327,0,0,1,43.27,31.8Zm0,0" transform="translate(42 481.934)" fill="#1d1d1d"/>
          <path id="Path_15" data-name="Path 15" d="M348.922,257.215a3.066,3.066,0,1,0,3,3.065A3.037,3.037,0,0,0,348.922,257.215Zm0,5a1.931,1.931,0,1,1,1.865-1.93A1.9,1.9,0,0,1,348.922,262.21Zm0,0" transform="translate(-268.922 251.482)" fill="#1d1d1d"/>
        </g>
      </g>
    </g>
  </g>
</svg>
