<svg xmlns="http://www.w3.org/2000/svg" width="80" height="80" viewBox="0 0 80 80">
  <g id="Group_21" data-name="Group 21" transform="translate(-311 -255)">
    <rect id="Rectangle_1" data-name="Rectangle 1" width="80" height="80" rx="2" transform="translate(311 255)" fill="#3dcfd3"/>
    <g id="movie" transform="translate(334.87 185.965)">
      <path id="Path_13" data-name="Path 13" d="M15.47,125.347a28.423,28.423,0,0,0,9.792-1.607,24.881,24.881,0,0,0,8.276-4.775,24.577,24.577,0,0,0,6.391-9,.887.887,0,0,0-.5-1.172l-1.542-.595a.884.884,0,0,0-1.132.477,21.179,21.179,0,0,1-5.48,7.722,20.194,20.194,0,0,1-2.016,1.557,15.851,15.851,0,1,0-13.792,7.4ZM24.693,105.6a3.9,3.9,0,1,1-3.9,3.9A3.9,3.9,0,0,1,24.693,105.6ZM15.85,96.759a3.9,3.9,0,1,1-3.9,3.9A3.9,3.9,0,0,1,15.85,96.759Zm0,17.686a3.9,3.9,0,1,1-3.9,3.9A3.9,3.9,0,0,1,15.85,114.445ZM3.108,109.5a3.9,3.9,0,1,1,3.9,3.9A3.9,3.9,0,0,1,3.108,109.5Z" transform="translate(0 0)" fill="#1d1d1d"/>
    </g>
  </g>
</svg>
