<svg xmlns="http://www.w3.org/2000/svg" width="80" height="78" viewBox="0 0 31.022 33.099">
  <g id="Group_23" data-name="Group 23" transform="translate(-164.2 -481.728)">
    <path id="Path_16" data-name="Path 16" d="M31.017,12.658A.552.552,0,0,0,31,12.546a.577.577,0,0,0-.029-.095.5.5,0,0,0-.052-.084.513.513,0,0,0-.069-.086c-.008-.008-.012-.018-.021-.026L25.852,8.135V3.864A1.606,1.606,0,0,0,24.3,2.209H18.7L16.454.35a1.458,1.458,0,0,0-1.886,0L12.325,2.209h-5.6A1.606,1.606,0,0,0,5.17,3.864V8.135L.2,12.255c-.009.008-.012.018-.021.026a.51.51,0,0,0-.069.086.5.5,0,0,0-.052.084.57.57,0,0,0-.029.095.554.554,0,0,0-.021.11c0,.012-.006.022-.006.033V31.448a1.71,1.71,0,0,0,.3.974.142.142,0,0,0,.007.015s.011.009.017.015a1.513,1.513,0,0,0,1.222.65H29.472A1.513,1.513,0,0,0,30.7,32.45c0-.005.01-.007.014-.013s0-.01.007-.015a1.71,1.71,0,0,0,.3-.974V12.691C31.023,12.679,31.017,12.67,31.017,12.658ZM15.2,1.221a.472.472,0,0,1,.617,0l1.193.988h-3ZM1.681,32,15.2,20.795a.472.472,0,0,1,.617,0L29.342,32Zm28.308-.86L16.454,19.924a1.459,1.459,0,0,0-1.886,0L1.034,31.14V13.531l8.473,7.02a.5.5,0,0,0,.726-.1.577.577,0,0,0-.092-.774L1.532,12.548,5.17,9.532v4.263a.518.518,0,1,0,1.034,0V3.864a.535.535,0,0,1,.517-.552H24.3a.535.535,0,0,1,.517.552v9.93a.518.518,0,1,0,1.034,0V9.532l3.638,3.016-8.623,7.144a.569.569,0,0,0-.2.513.547.547,0,0,0,.319.439.491.491,0,0,0,.515-.08l8.488-7.032V31.14Z" transform="translate(164.199 481.724)" fill="#1d1d1d"/>
    <path id="Path_17" data-name="Path 17" d="M163.574,74.9V73.237a5,5,0,1,0-5,5,.417.417,0,1,0,0-.833,4.167,4.167,0,1,1,4.167-4.167V74.9a.833.833,0,1,1-1.667,0V73.237a.417.417,0,0,0-.833,0,1.667,1.667,0,1,1-1.667-1.667.417.417,0,1,0,0-.833,2.5,2.5,0,1,0,1.685,4.342,1.662,1.662,0,0,0,3.315-.176Z" transform="translate(21.137 420.041)" fill="#1d1d1d"/>
  </g>
</svg>
