<svg xmlns="http://www.w3.org/2000/svg" width="68" height="80" viewBox="0 0 22 38.847">
  <g id="smartphone" transform="translate(-6.87)">
    <path id="Path_18" data-name="Path 18" d="M26.042,0H9.7A2.827,2.827,0,0,0,6.87,2.831V36.02A2.827,2.827,0,0,0,9.7,38.847H26.042A2.83,2.83,0,0,0,28.87,36.02V2.831A2.832,2.832,0,0,0,26.042,0Zm.709,31.475H8.99V4.775H26.75Zm-5.092-28.6H14.08V2.046H21.66v.826ZM24.9,2.495a.725.725,0,1,1-.725-.723A.725.725,0,0,1,24.9,2.495ZM21.319,35.831h-6.9V33.707h6.9Z" fill="#1d1d1d"/>
  </g>
</svg>
